<?xml version="1.0" encoding="utf-8"?>
<!-- Generator: Adobe Illustrator 22.0.0, SVG Export Plug-In . SVG Version: 6.00 Build 0)  -->
<svg version="1.1" xmlns="http://www.w3.org/2000/svg" xmlns:xlink="http://www.w3.org/1999/xlink" x="0px" y="0px"
	 viewBox="0 0 100 100" style="enable-background:new 0 0 100 100;" xml:space="preserve">
<style type="text/css">
	.st0{fill:#231F20;}
</style>
<g id="Layer_2">
</g>
<g id="Layer_1">
	<g>
		<g>
			<g>
				<path class="st0" d="M25.5,84.3l-2.1,4.9h0.9l0.4-1h2.2l0.4,1h0.9l-2.1-4.9H25.5z M24.9,87.6l0.9-2.2l0.9,2.2H24.9z"/>
				<path class="st0" d="M33.4,87.5c0,0.2,0,0.4-0.1,0.6c-0.1,0.2-0.2,0.3-0.4,0.4c-0.2,0.1-0.4,0.1-0.6,0.1s-0.4,0-0.6-0.1
					c-0.2-0.1-0.3-0.2-0.4-0.4c-0.1-0.2-0.1-0.4-0.1-0.6v-3.2h-0.9v3.3c0,0.3,0.1,0.6,0.3,0.9c0.2,0.3,0.4,0.5,0.7,0.6
					c0.3,0.1,0.7,0.2,1,0.2c0.4,0,0.7-0.1,1-0.2c0.3-0.1,0.6-0.3,0.7-0.6c0.2-0.3,0.3-0.6,0.3-0.9v-3.3h-0.9V87.5z"/>
				<path class="st0" d="M40,86.8c-0.1-0.1-0.3-0.2-0.4-0.2c-0.2-0.1-0.4-0.1-0.6-0.1l-0.6-0.1c-0.1,0-0.2,0-0.4-0.1
					c-0.1,0-0.2-0.1-0.3-0.1c-0.1-0.1-0.2-0.3-0.2-0.5c0-0.1,0-0.3,0.1-0.4c0.1-0.1,0.2-0.2,0.4-0.3c0.2-0.1,0.3-0.1,0.6-0.1
					c0.2,0,0.3,0,0.5,0c0.1,0,0.3,0.1,0.4,0.1c0.1,0.1,0.3,0.1,0.4,0.2l0.6-0.5c-0.2-0.2-0.5-0.3-0.8-0.4s-0.6-0.1-1-0.1
					c-0.4,0-0.7,0.1-1,0.2c-0.3,0.1-0.5,0.3-0.7,0.5c-0.2,0.2-0.2,0.5-0.2,0.8c0,0.4,0.1,0.7,0.4,0.9c0.3,0.2,0.6,0.3,1.1,0.4
					l0.7,0.1c0.2,0,0.3,0,0.4,0.1c0.1,0,0.2,0.1,0.2,0.1c0.2,0.1,0.2,0.3,0.2,0.5c0,0.2-0.1,0.4-0.3,0.6c-0.2,0.1-0.5,0.2-0.9,0.2
					c-0.2,0-0.4,0-0.6,0c-0.2,0-0.3-0.1-0.5-0.2c-0.2-0.1-0.3-0.2-0.4-0.3l-0.6,0.5c0.3,0.2,0.6,0.4,0.9,0.5
					c0.3,0.1,0.7,0.2,1.1,0.2c0.3,0,0.6,0,0.8-0.1c0.2-0.1,0.5-0.2,0.6-0.3c0.2-0.1,0.3-0.3,0.4-0.5c0.1-0.2,0.1-0.4,0.1-0.6
					C40.5,87.4,40.3,87,40,86.8z"/>
				<polygon class="st0" points="42.4,84.9 43.9,84.9 43.9,89.2 44.8,89.2 44.8,84.9 46.4,84.9 46.4,84.3 42.4,84.3 				"/>
				<path class="st0" d="M52.2,86.6c0.2-0.2,0.3-0.5,0.3-0.9c0-0.3-0.1-0.5-0.2-0.7c-0.1-0.2-0.4-0.4-0.6-0.5
					c-0.3-0.1-0.6-0.2-0.9-0.2h-2.2v4.9h0.9v-2.1h1.1l1.2,2.1h1L51.4,87C51.7,86.9,52,86.8,52.2,86.6z M49.4,86.5v-1.5h1.3
					c0.3,0,0.5,0.1,0.7,0.2c0.2,0.1,0.3,0.3,0.3,0.6c0,0.2-0.1,0.4-0.3,0.6c-0.2,0.1-0.4,0.2-0.7,0.2H49.4z"/>
				<path class="st0" d="M56.5,84.3l-2.1,4.9h0.9l0.4-1h2.2l0.4,1h0.9l-2.1-4.9H56.5z M55.9,87.6l0.9-2.2l0.9,2.2H55.9z"/>
				<polygon class="st0" points="62.1,84.3 61.3,84.3 61.3,89.2 64.9,89.2 64.9,88.5 62.1,88.5 				"/>
				<rect x="67.1" y="84.3" class="st0" width="0.9" height="4.9"/>
				<path class="st0" d="M72.1,84.3L70,89.2h0.9l0.4-1h2.2l0.4,1h0.9l-2.1-4.9H72.1z M71.6,87.6l0.9-2.2l0.9,2.2H71.6z"/>
				<path class="st0" d="M62.9,47.3L62.9,47.3l0-36.5L49.9,20.8l-13-10l-0.1-0.1v36.5l13.1,9.9L62.9,47.3z M50.9,22.7l10-7.7v23.2
					h-10V22.7z M38.9,15l10,7.7v15.5h-10V15z M38.9,46.2v-6h22v6l-11,8.4L38.9,46.2z"/>
				<path class="st0" d="M19.5,50h-2.7l2.1-3.1c0.2-0.3,0.4-0.6,0.5-0.9c0.1-0.2,0.1-0.5,0.1-0.9c0-0.5-0.1-0.9-0.2-1.2
					c-0.2-0.3-0.4-0.6-0.7-0.8c-0.3-0.2-0.6-0.3-1-0.3c-0.3,0-0.5,0.1-0.8,0.2c-0.2,0.1-0.4,0.3-0.6,0.5c-0.2,0.2-0.3,0.4-0.4,0.7
					c-0.1,0.3-0.1,0.6-0.1,0.9h1c0-0.4,0.1-0.7,0.3-1c0.2-0.2,0.4-0.3,0.7-0.3c0.2,0,0.4,0.1,0.5,0.2c0.1,0.1,0.3,0.3,0.3,0.4
					s0.1,0.4,0.1,0.6c0,0.4-0.1,0.7-0.4,1.1L15.6,50v1h3.9V50z"/>
				<path class="st0" d="M22.9,50.9c0.3,0.2,0.6,0.3,1,0.3c0.4,0,0.7-0.1,1-0.3c0.3-0.2,0.5-0.5,0.7-0.8c0.2-0.4,0.3-0.8,0.3-1.2
					v-3.6c0-0.4,0-0.7-0.1-1c-0.1-0.3-0.2-0.5-0.4-0.7c-0.2-0.2-0.4-0.4-0.6-0.5c-0.2-0.1-0.5-0.2-0.7-0.2c-0.3,0-0.5,0.1-0.7,0.2
					c-0.2,0.1-0.4,0.3-0.6,0.5c-0.2,0.2-0.3,0.5-0.4,0.7c-0.1,0.3-0.1,0.6-0.1,1v3.6c0,0.5,0.1,0.9,0.3,1.2
					C22.4,50.4,22.6,50.7,22.9,50.9z M22.9,45.2c0-0.3,0-0.5,0.1-0.7c0.1-0.2,0.2-0.4,0.3-0.5c0.1-0.1,0.3-0.2,0.5-0.2
					c0.2,0,0.4,0.1,0.5,0.2c0.1,0.1,0.3,0.3,0.3,0.5c0.1,0.2,0.1,0.4,0.1,0.7v3.6c0,0.4-0.1,0.7-0.3,1c-0.2,0.2-0.4,0.4-0.7,0.4
					c-0.3,0-0.5-0.1-0.7-0.4c-0.2-0.2-0.3-0.6-0.3-1V45.2z"/>
				<polygon class="st0" points="75.6,51.1 76.6,51.1 76.6,42.9 75.6,42.9 74.3,44.3 74.3,45.6 75.6,44.2 				"/>
				<path class="st0" d="M81.1,50.9c0.3,0.2,0.6,0.3,1,0.3c0.4,0,0.7-0.1,1-0.3c0.3-0.2,0.5-0.5,0.7-0.8c0.2-0.4,0.3-0.8,0.3-1.2
					v-3.6c0-0.4-0.1-0.7-0.2-1c-0.1-0.3-0.2-0.5-0.4-0.7c-0.2-0.2-0.4-0.4-0.6-0.5c-0.2-0.1-0.5-0.2-0.7-0.2c-0.3,0-0.5,0.1-0.7,0.2
					c-0.2,0.1-0.4,0.3-0.6,0.5c-0.2,0.2-0.3,0.5-0.4,0.7c-0.1,0.3-0.1,0.6-0.1,1v3.6c0,0.5,0.1,0.9,0.3,1.2
					C80.6,50.4,80.9,50.7,81.1,50.9z M81.2,45.3c0-0.3,0-0.5,0.1-0.7c0.1-0.2,0.2-0.4,0.3-0.5c0.1-0.1,0.3-0.2,0.5-0.2
					c0.2,0,0.4,0.1,0.5,0.2c0.1,0.1,0.3,0.3,0.3,0.5c0.1,0.2,0.1,0.4,0.1,0.7v3.6c0,0.4-0.1,0.7-0.3,1c-0.2,0.2-0.4,0.4-0.7,0.4
					c-0.3,0-0.5-0.1-0.7-0.4c-0.2-0.2-0.3-0.6-0.3-1V45.3z"/>
				<path class="st0" d="M34.2,56.3c-0.4-0.2-0.7-0.5-1.1-0.5c-7.6,0-14.9,0-22.1,0c-0.3,0-0.7,0.3-1,0.5c0.4,0.2,0.7,0.6,1.1,0.6
					c4,0,19.1,0,22.1,0C33.5,56.9,33.9,56.5,34.2,56.3z"/>
				<path class="st0" d="M88.9,55.8c-7.6,0-14.9,0-22.1,0c-0.3,0-0.7,0.3-1,0.5c0.4,0.2,0.7,0.6,1.1,0.6c4,0,19.1,0,22.1,0
					c0.4,0,0.7-0.4,1.1-0.5C89.6,56.2,89.3,55.8,88.9,55.8z"/>
				<polygon class="st0" points="35.2,69.7 35.2,78.5 38.4,78.5 38.4,64 35.9,64 30.7,70.4 25.5,64 22.9,64 22.9,78.5 26.1,78.5 
					26.1,69.7 29.8,74.2 31.6,74.2 				"/>
				<polygon class="st0" points="51.5,78.5 51.5,72.7 58,64 54.1,64 49.9,69.7 45.6,64 41.7,64 48.3,72.7 48.3,78.5 				"/>
				<path class="st0" d="M68.3,64H62v14.5h6.3c5.8,0,8.5-3.8,8.5-7.3C76.8,67.8,74.2,64,68.3,64z M68.3,75.7h-3.1v-8.9h3.1
					c3.6,0,5.3,2.3,5.3,4.4C73.6,73.4,72,75.7,68.3,75.7z"/>
			</g>
		</g>
	</g>
</g>
</svg>
